# 3ds Max Wavefront OBJ Exporter v0.97b - (c)2007 guruware
# File Created: 29.05.2026 17:16:35

#
# object Cylinder001
#

v  -5.7463 9.2535 -0.6460
v  -5.3348 8.5979 -4.5373
v  -16.5656 1.5478 -4.5373
v  -16.9771 2.2033 -0.6460
v  -4.1629 6.7310 -7.8362
v  -15.3936 -0.3191 -7.8362
v  -2.4089 3.9370 -10.0405
v  -13.6397 -3.1131 -10.0405
v  -0.3400 0.6412 -10.8145
v  -11.5708 -6.4089 -10.8145
v  1.7289 -2.6545 -10.0405
v  -9.5018 -9.7047 -10.0405
v  3.4829 -5.4485 -7.8362
v  -7.7479 -12.4987 -7.8362
v  4.6548 -7.3154 -4.5373
v  -6.5760 -14.3656 -4.5373
v  5.0664 -7.9710 -0.6460
v  -6.1644 -15.0211 -0.6460
v  4.6548 -7.3154 3.2454
v  -6.5760 -14.3656 3.2454
v  3.4829 -5.4485 6.5443
v  -7.7479 -12.4987 6.5443
v  1.7289 -2.6545 8.7485
v  -9.5018 -9.7047 8.7485
v  -0.3400 0.6412 9.5226
v  -11.5708 -6.4089 9.5226
v  -2.4089 3.9370 8.7485
v  -13.6397 -3.1131 8.7485
v  -4.1629 6.7310 6.5443
v  -15.3936 -0.3191 6.5443
v  -5.3348 8.5979 3.2454
v  -16.5656 1.5478 3.2454
v  -53.9830 -27.9984 40.0585
v  -57.1279 -30.4508 39.2630
v  -59.0522 -33.9054 38.3139
v  -46.0593 -27.3838 40.7459
v  -59.4629 -37.8362 37.3555
v  -58.2975 -41.6447 36.5339
v  -52.1610 -46.6826 35.7613
v  -55.7334 -44.7511 35.9741
v  -48.1241 -47.1450 35.9280
v  -44.2374 -46.0680 36.4487
v  -39.1682 -40.1610 38.1933
v  -41.0925 -43.6155 37.2442
v  -38.7575 -36.2302 39.1517
v  -39.9229 -32.4217 39.9733
v  -42.4869 -29.3153 40.5331
v  -50.0962 -26.9214 40.5793
v  -25.8724 -2.6987 -5.0972
v  -26.3431 -1.9488 -0.6460
v  -24.5318 -4.8342 -8.8707
v  -22.5255 -8.0302 -11.3921
v  -20.1589 -11.8001 -12.2775
v  -17.7923 -15.5701 -11.3921
v  -15.7860 -18.7661 -8.8707
v  -14.4454 -20.9016 -5.0972
v  -13.9747 -21.6515 -0.6460
v  -14.4454 -20.9016 3.8052
v  -15.7860 -18.7661 7.5788
v  -17.7923 -15.5701 10.1002
v  -20.1589 -11.8001 10.9856
v  -22.5255 -8.0302 10.1002
v  -24.5318 -4.8342 7.5788
v  -25.8724 -2.6987 3.8052
v  -33.7785 -9.8961 -4.3133
v  -34.1663 -9.2782 -0.6460
v  -32.6740 -11.6555 -7.4224
v  -31.0210 -14.2887 -9.4998
v  -29.0711 -17.3948 -10.2293
v  -27.1213 -20.5009 -9.4998
v  -25.4683 -23.1341 -7.4224
v  -24.3638 -24.8936 -4.3133
v  -23.9759 -25.5114 -0.6460
v  -24.3638 -24.8936 3.0214
v  -25.4683 -23.1341 6.1305
v  -27.1213 -20.5009 8.2079
v  -29.0711 -17.3948 8.9374
v  -31.0210 -14.2887 8.2079
v  -32.6740 -11.6555 6.1305
v  -33.7785 -9.8960 3.0214
v  -40.9481 -14.1374 -1.2527
v  -38.9887 -13.5460 1.6467
v  -42.1970 -15.9139 -4.0596
v  -42.5455 -18.6050 -6.3469
v  -41.9403 -21.8010 -7.7663
v  -40.4738 -25.0153 -8.1017
v  -38.3690 -27.7586 -7.3020
v  -35.9466 -29.6132 -5.4889
v  -33.5752 -30.2968 -2.9386
v  -31.6158 -29.7054 -0.0393
v  -30.3669 -27.9289 2.7677
v  -30.0184 -25.2378 5.0550
v  -30.6236 -22.0418 6.4744
v  -32.0901 -18.8275 6.8097
v  -34.1948 -16.0842 6.0100
v  -36.6173 -14.2296 4.1970
v  -45.8056 -17.1933 3.9049
v  -42.9597 -16.3911 5.5767
v  -47.9715 -19.1297 2.1451
v  -49.1278 -21.9054 0.5652
v  -49.0982 -25.0980 -0.5943
v  -47.8874 -28.2213 -1.1568
v  -45.6797 -30.7999 -1.0367
v  -42.8111 -32.4412 -0.2524
v  -39.7185 -32.8954 1.0769
v  -36.8726 -32.0932 2.7487
v  -34.7066 -30.1569 4.5085
v  -33.5504 -27.3811 6.0884
v  -33.5799 -24.1885 7.2479
v  -34.7908 -21.0652 7.8104
v  -36.9985 -18.4866 7.6904
v  -39.8670 -16.8453 6.9060
v  -47.2787 -16.3688 5.3983
v  -43.9226 -15.4228 7.3698
v  -49.8329 -18.6522 3.3230
v  -51.1964 -21.9256 1.4599
v  -51.1615 -25.6904 0.0926
v  -49.7337 -29.3737 -0.5708
v  -47.1302 -32.4145 -0.4292
v  -43.7474 -34.3501 0.4958
v  -40.1004 -34.8856 2.0634
v  -36.7443 -33.9397 4.0349
v  -34.1900 -31.6562 6.1101
v  -32.8266 -28.3829 7.9733
v  -32.8614 -24.6180 9.3406
v  -34.2893 -20.9348 10.0040
v  -36.8928 -17.8939 9.8624
v  -40.2755 -15.9584 8.9374
v  -49.0996 -15.4441 7.3199
v  -45.1377 -14.3274 9.6473
v  -52.1149 -18.1398 4.8700
v  -53.7245 -22.0040 2.6706
v  -53.6834 -26.4485 1.0564
v  -51.9978 -30.7966 0.2733
v  -48.9243 -34.3864 0.4405
v  -44.9309 -36.6713 1.5324
v  -40.6255 -37.3035 3.3830
v  -36.6636 -36.1868 5.7103
v  -33.6483 -33.4911 8.1602
v  -32.0387 -29.6269 10.3597
v  -32.0799 -25.1824 11.9738
v  -33.7655 -20.8343 12.7569
v  -36.8389 -17.2446 12.5898
v  -40.8323 -14.9596 11.4978
v  -51.9567 -27.4340 30.5381
v  -49.0376 -26.6252 30.9292
v  -54.3186 -29.2759 29.9407
v  -55.7638 -31.8704 29.2278
v  -56.0723 -34.8225 28.5081
v  -55.1970 -37.6829 27.8910
v  -53.2713 -40.0159 27.4706
v  -50.5883 -41.4665 27.3108
v  -47.5565 -41.8138 27.4359
v  -44.6374 -41.0049 27.8270
v  -42.2755 -39.1630 28.4245
v  -40.8303 -36.5686 29.1373
v  -40.5218 -33.6164 29.8571
v  -41.3971 -30.7561 30.4741
v  -43.3228 -28.4231 30.8946
v  -46.0058 -26.9725 31.0544
v  -53.0148 -26.2486 33.0123
v  -49.3682 -25.2382 33.5008
v  -55.9653 -28.5495 32.2660
v  -57.7707 -31.7906 31.3755
v  -58.1560 -35.4784 30.4763
v  -57.0626 -39.0515 29.7055
v  -54.6570 -41.9660 29.1803
v  -51.3054 -43.7781 28.9807
v  -47.5181 -44.2119 29.1370
v  -43.8715 -43.2015 29.6255
v  -40.9210 -40.9006 30.3719
v  -39.1156 -37.6595 31.2624
v  -38.7303 -33.9717 32.1615
v  -39.8237 -30.3986 32.9323
v  -42.2292 -27.4841 33.4575
v  -45.5809 -25.6721 33.6572
v  -63.4208 -9.8840 59.2644
v  -64.0577 -9.9976 59.2618
v  -64.1128 -11.1181 59.7276
v  -63.2722 -10.9489 59.7723
v  -64.7713 -10.2563 58.9736
v  -64.6936 -11.3491 59.4526
v  -84.7016 -26.2516 55.5171
v  -84.9289 -26.6900 55.6202
v  -84.4265 -27.4756 56.3877
v  -84.0384 -26.5071 56.2702
v  -85.1432 -27.6655 55.5095
v  -84.4559 -28.0013 56.2532
v  -49.0050 -56.9912 55.5451
v  -48.3223 -56.6942 55.7385
v  -48.8780 -55.9370 55.7595
v  -49.3944 -56.1602 55.5303
v  -47.7896 -56.5013 55.6922
v  -48.1227 -55.6635 55.7025
v  -31.4170 -9.5733 63.6369
v  -32.1141 -9.0958 63.8442
v  -32.3081 -10.0224 64.2456
v  -31.7823 -10.4087 64.0412
v  -32.7074 -8.8247 63.7637
v  -33.1249 -9.6202 64.1903
v  -56.7745 -19.4916 34.9677
v  -53.8762 -18.6971 35.3540
v  -59.1926 -21.3649 34.3586
v  -60.1118 -22.8682 39.8911
v  -57.6231 -20.9152 40.5232
v  -54.4517 -20.0278 40.9500
v  -61.7658 -10.3161 39.9722
v  -59.7602 -9.9084 40.0623
v  -63.6430 -11.3802 39.3414
v  -63.6554 -13.8784 42.3165
v  -61.8643 -12.8191 42.9515
v  -59.5349 -12.3099 43.0842
v  -62.9501 -8.0758 42.6279
v  -61.3214 -7.7755 42.6557
v  -64.6100 -8.6883 41.9363
v  -64.4139 -11.5321 43.1957
v  -62.9075 -10.9468 43.8819
v  -60.9326 -10.5574 43.9694
v  -40.3357 -21.4895 35.4962
v  -37.8763 -23.6121 35.0454
v  -43.4008 -20.4501 35.6648
v  -43.5579 -21.9400 41.6400
v  -40.2568 -23.0678 41.4563
v  -37.6744 -25.3075 40.9805
v  -36.4437 -15.0714 37.4410
v  -34.1833 -17.0189 37.0275
v  -39.2379 -14.1264 37.5941
v  -39.3802 -15.4771 43.0127
v  -36.3510 -16.5147 42.8435
v  -34.0004 -18.5566 42.4095
v  -34.2773 -10.6727 41.3623
v  -31.9322 -12.4940 40.8561
v  -37.0279 -9.6285 41.1007
v  -38.6656 -12.9395 45.2913
v  -35.6824 -14.0822 45.5670
v  -33.2420 -15.9901 45.0305
v  -33.6294 -8.1112 45.8213
v  -31.7439 -9.4365 45.1986
v  -35.6837 -7.1358 45.6134
v  -37.4710 -10.5483 47.4014
v  -35.1911 -11.6420 47.6108
v  -33.2859 -12.9943 46.9575
v  -67.7861 -30.8651 30.7901
v  -66.9038 -28.5921 31.3834
v  -67.7138 -33.5147 30.2365
v  -68.9471 -34.9646 34.7621
v  -69.0674 -32.3450 35.2963
v  -68.0830 -29.7255 35.9727
v  -75.5153 -27.5856 32.0271
v  -74.5638 -25.4066 32.4141
v  -75.5649 -30.1492 31.4762
v  -75.8004 -31.5631 35.9707
v  -75.8066 -29.0505 36.5078
v  -74.7368 -26.5161 36.9575
v  -80.0569 -26.7839 34.5399
v  -79.1126 -24.7896 34.6275
v  -80.2647 -29.1773 34.0486
v  -79.2287 -30.5034 38.0416
v  -79.0905 -28.2030 38.5298
v  -78.0118 -25.8352 38.6469
v  -46.8861 -49.4580 28.0298
v  -50.3179 -49.0693 27.8862
v  -43.6048 -48.5489 28.4693
v  -44.2291 -49.9009 35.8665
v  -47.7493 -50.8765 35.3949
v  -51.3816 -50.4560 35.2468
v  -46.2321 -53.8491 28.7109
v  -49.0083 -53.6780 28.1917
v  -43.6236 -52.9791 28.9946
v  -44.4183 -52.8401 34.2371
v  -47.2605 -53.7881 33.9281
v  -50.1502 -53.5829 33.3872
v  -45.2620 -58.1457 30.9710
v  -47.6868 -58.3570 30.1760
v  -42.9486 -57.2638 31.0737
v  -44.2439 -54.7281 34.8507
v  -46.7874 -55.6974 34.7374
v  -49.2854 -55.8857 33.8993
v  -45.3472 -59.5111 34.6375
v  -47.3614 -59.9949 33.8905
v  -43.3936 -58.7526 34.6094
v  -44.7365 -55.5691 36.5530
v  -46.9185 -56.4155 36.5831
v  -48.9547 -56.8802 35.7889
# 284 vertices

g Cylinder001
f 1 2 3 4 
f 2 5 6 3 
f 5 7 8 6 
f 7 9 10 8 
f 9 11 12 10 
f 11 13 14 12 
f 13 15 16 14 
f 15 17 18 16 
f 17 19 20 18 
f 19 21 22 20 
f 21 23 24 22 
f 23 25 26 24 
f 25 27 28 26 
f 27 29 30 28 
f 29 31 32 30 
f 31 1 4 32 
f 29 27 25 1 
f 25 23 21 17 
f 21 19 17 
f 17 15 13 9 
f 13 11 9 
f 9 7 5 1 
f 5 2 1 
f 17 9 1 25 
f 31 29 1 
f 33 34 35 36 
f 35 37 38 39 
f 38 40 39 
f 39 41 42 43 
f 42 44 43 
f 43 45 46 36 
f 46 47 36 
f 39 43 36 35 
f 48 33 36 
f 4 3 49 50 
f 3 6 51 49 
f 6 8 52 51 
f 8 10 53 52 
f 10 12 54 53 
f 12 14 55 54 
f 14 16 56 55 
f 16 18 57 56 
f 18 20 58 57 
f 20 22 59 58 
f 22 24 60 59 
f 24 26 61 60 
f 26 28 62 61 
f 28 30 63 62 
f 30 32 64 63 
f 32 4 50 64 
f 50 49 65 66 
f 49 51 67 65 
f 51 52 68 67 
f 52 53 69 68 
f 53 54 70 69 
f 54 55 71 70 
f 55 56 72 71 
f 56 57 73 72 
f 57 58 74 73 
f 58 59 75 74 
f 59 60 76 75 
f 60 61 77 76 
f 61 62 78 77 
f 62 63 79 78 
f 63 64 80 79 
f 64 50 66 80 
f 66 65 81 82 
f 65 67 83 81 
f 67 68 84 83 
f 68 69 85 84 
f 69 70 86 85 
f 70 71 87 86 
f 71 72 88 87 
f 72 73 89 88 
f 73 74 90 89 
f 74 75 91 90 
f 75 76 92 91 
f 76 77 93 92 
f 77 78 94 93 
f 78 79 95 94 
f 79 80 96 95 
f 80 66 82 96 
f 82 81 97 98 
f 81 83 99 97 
f 83 84 100 99 
f 84 85 101 100 
f 85 86 102 101 
f 86 87 103 102 
f 87 88 104 103 
f 88 89 105 104 
f 89 90 106 105 
f 90 91 107 106 
f 91 92 108 107 
f 92 93 109 108 
f 93 94 110 109 
f 94 95 111 110 
f 95 96 112 111 
f 96 82 98 112 
f 98 97 113 114 
f 97 99 115 113 
f 99 100 116 115 
f 100 101 117 116 
f 101 102 118 117 
f 102 103 119 118 
f 103 104 120 119 
f 104 105 121 120 
f 105 106 122 121 
f 106 107 123 122 
f 107 108 124 123 
f 108 109 125 124 
f 109 110 126 125 
f 110 111 127 126 
f 111 112 128 127 
f 112 98 114 128 
f 114 113 129 130 
f 113 115 131 129 
f 115 116 132 131 
f 116 117 133 132 
f 117 118 134 133 
f 118 119 135 134 
f 119 120 136 135 
f 120 121 137 136 
f 121 122 138 137 
f 122 123 139 138 
f 123 124 140 139 
f 124 125 141 140 
f 125 126 142 141 
f 126 127 143 142 
f 127 128 144 143 
f 128 114 130 144 
f 130 129 145 146 
f 129 131 147 145 
f 131 132 148 147 
f 132 133 149 148 
f 133 134 150 149 
f 134 135 151 150 
f 135 136 152 151 
f 136 137 153 152 
f 137 138 154 153 
f 138 139 155 154 
f 139 140 156 155 
f 140 141 157 156 
f 141 142 158 157 
f 142 143 159 158 
f 143 144 160 159 
f 144 130 146 160 
f 146 145 161 162 
f 145 147 163 161 
f 147 148 164 163 
f 148 149 165 164 
f 149 150 166 165 
f 150 151 167 166 
f 151 152 168 167 
f 152 153 169 168 
f 153 154 170 169 
f 154 155 171 170 
f 155 156 172 171 
f 156 157 173 172 
f 157 158 174 173 
f 158 159 175 174 
f 159 160 176 175 
f 160 146 162 176 
f 177 178 179 180 
f 178 181 182 179 
f 163 164 35 34 
f 183 184 185 186 
f 184 187 188 185 
f 166 167 40 38 
f 167 168 39 40 
f 189 190 191 192 
f 190 193 194 191 
f 170 171 44 42 
f 171 172 43 44 
f 172 173 45 43 
f 173 174 46 45 
f 195 196 197 198 
f 196 199 200 197 
f 176 162 48 36 
f 162 161 201 202 
f 161 163 203 201 
f 163 34 204 203 
f 34 33 205 204 
f 33 48 206 205 
f 48 162 202 206 
f 202 201 207 208 
f 201 203 209 207 
f 203 204 210 209 
f 204 205 211 210 
f 205 206 212 211 
f 206 202 208 212 
f 208 207 213 214 
f 207 209 215 213 
f 209 210 216 215 
f 210 211 217 216 
f 211 212 218 217 
f 212 208 214 218 
f 214 213 178 177 
f 213 215 181 178 
f 215 216 182 181 
f 216 217 179 182 
f 217 218 180 179 
f 218 214 177 180 
f 174 175 219 220 
f 175 176 221 219 
f 176 36 222 221 
f 36 47 223 222 
f 47 46 224 223 
f 46 174 220 224 
f 220 219 225 226 
f 219 221 227 225 
f 221 222 228 227 
f 222 223 229 228 
f 223 224 230 229 
f 224 220 226 230 
f 226 225 231 232 
f 225 227 233 231 
f 227 228 234 233 
f 228 229 235 234 
f 229 230 236 235 
f 230 226 232 236 
f 232 231 237 238 
f 231 233 239 237 
f 233 234 240 239 
f 234 235 241 240 
f 235 236 242 241 
f 236 232 238 242 
f 238 237 196 195 
f 237 239 199 196 
f 239 240 200 199 
f 240 241 197 200 
f 241 242 198 197 
f 242 238 195 198 
f 164 165 243 244 
f 165 166 245 243 
f 166 38 246 245 
f 38 37 247 246 
f 37 35 248 247 
f 35 164 244 248 
f 244 243 249 250 
f 243 245 251 249 
f 245 246 252 251 
f 246 247 253 252 
f 247 248 254 253 
f 248 244 250 254 
f 250 249 255 256 
f 249 251 257 255 
f 251 252 258 257 
f 252 253 259 258 
f 253 254 260 259 
f 254 250 256 260 
f 256 255 184 183 
f 255 257 187 184 
f 257 258 188 187 
f 258 259 185 188 
f 259 260 186 185 
f 260 256 183 186 
f 168 169 261 262 
f 169 170 263 261 
f 170 42 264 263 
f 42 41 265 264 
f 41 39 266 265 
f 39 168 262 266 
f 262 261 267 268 
f 261 263 269 267 
f 263 264 270 269 
f 264 265 271 270 
f 265 266 272 271 
f 266 262 268 272 
f 268 267 273 274 
f 267 269 275 273 
f 269 270 276 275 
f 270 271 277 276 
f 271 272 278 277 
f 272 268 274 278 
f 274 273 279 280 
f 273 275 281 279 
f 275 276 282 281 
f 276 277 283 282 
f 277 278 284 283 
f 278 274 280 284 
f 280 279 190 189 
f 279 281 193 190 
f 281 282 194 193 
f 282 283 191 194 
f 283 284 192 191 
f 284 280 189 192 
# 278 polygons - 8 triangles

